<svg id="Layer_1" data-name="Layer 1" xmlns="http://www.w3.org/2000/svg" viewBox="0 0 265.67 100.81"><defs><style>.cls-1{fill:none;stroke:#fff;stroke-linecap:round;stroke-linejoin:round;}</style></defs><path class="cls-1" d="M26.31,43.49c-2.13,0-3.43-.24-3.72-1-.19-.48.28-1.05.86-2.4A10.79,10.79,0,0,1,25.1,37a26.13,26.13,0,0,1,3.25-3.4,21.28,21.28,0,0,1,2.34-2c.67-.43,1.77-.76,1.51-1.67a1.57,1.57,0,0,0-.78-1c-.9-.43-2.07.35-2.94,1a17.63,17.63,0,0,0-4.16,4.24c-.65.9-1.41,2-1.73,1.91s0-.83-.44-1.39a1.33,1.33,0,0,0-1.29-.43,1.6,1.6,0,0,0-1,1c-.38.83,0,1.28,0,2.69a11.25,11.25,0,0,1-.6,3.64c-.23.82-.34,1-.52,1.12-.87.6-2.93-.26-3.38-1.56-.25-.71.2-.94.08-2.25-.06-.73-.16-1.88-.95-2.25a1.67,1.67,0,0,0-1.82.43c-.52.63-.16,1.46-.43,1.56s-1-1.09-2.43-3A10.06,10.06,0,0,0,7.22,32.9c-1.14-.75-1.68-.67-1.91-.61A2,2,0,0,0,4,33.77c-.21.87,1.33,1.5,1.73,1.92C7.35,37.34,8,38.82,9.29,40.37c1.69,2,2.77,3.73,3.73,4.14a8.71,8.71,0,0,1,2.86,1.38c.39.33,1.66,1.41,1.56,2.69-.07.85-.71,1.37-1.48,2.08a21.6,21.6,0,0,0-3.63,4.07c-1.51,2.54-.07,3.9-1.82,6.93-.14.24-.67.94-1.74,2.34-2.07,2.73-2.59,3.17-2.85,4.33-.31,1.32.17,1.6-.33,2.66A4.57,4.57,0,0,1,3.38,73.2c-.79.35-1.36.28-2.14.91A1.89,1.89,0,0,0,.52,75c-.31.93.55,1.94,1.17,2.67a4,4,0,0,0,2,1.49,2.89,2.89,0,0,0,1.43.07A3.45,3.45,0,0,0,7,77.77C8.59,75.65,16,71,26.25,62.44a6.53,6.53,0,0,0,2.26-3c.13-.44.1-.56.34-1.39A8.48,8.48,0,0,1,30,55.28a6.1,6.1,0,0,1,1.82-1.65,7.7,7.7,0,0,1,2.25-1C37.5,51.76,40.25,50,50,47.69c9.92-2.32,10.06-1.16,15.85-2.51a9.06,9.06,0,0,1,4.68,0,9.52,9.52,0,0,1,3.38,1.91c1.06.83,1.82,1.45,1.81,2.33A2.26,2.26,0,0,1,75,50.9a2.67,2.67,0,0,1-1.38.69c-1.46.29-7.45,4.2-13.17,9.1A83,83,0,0,0,44.79,77.84c-2.87,4.36-4.31,6.54-4.59,7.1-.89,1.78-3.27,6.86-5.2,8a3.65,3.65,0,0,0-1.21,1,3.14,3.14,0,0,0-.69,1.73c0,.77.2,2,1,2.34a2.51,2.51,0,0,0,1.9-.43,3.42,3.42,0,0,0,.78-.52,4,4,0,0,0,1-1.48c.33-.67.82-1.26,1.22-1.9,6.51-10.32,10-15.16,10-15.16,1.32-1.86,5.33-5.94,13.34-14.12a5.74,5.74,0,0,1,3.46-1.73,1.38,1.38,0,0,1,1.13.34A1.55,1.55,0,0,1,67,64.4a2.28,2.28,0,0,1-.87,1,31.48,31.48,0,0,0-4.33,4.07C57.41,73.91,56.29,76,47.09,88.53c-2.15,2.94-3.27,6.65-5.8,9.27A2,2,0,0,0,40.68,99a1.29,1.29,0,0,0,.26.95c.31.35.87.32,2,.26.74,0,1-.13,1.13-.26a1.49,1.49,0,0,0,.52-.86c.33-1.3,7.94-14.57,17.24-24.69,5.54-6,9-8.06,11-11a13.17,13.17,0,0,1,4-3.9,8.21,8.21,0,0,1,1.5-.78c2.17-.81,3.12.09,5.65-.39A6.58,6.58,0,0,0,87.23,57a7,7,0,0,0,1.88-2.86c.7-1.79.28-2.43,1-3.51a4.93,4.93,0,0,1,2.67-1.82c4.32-1.51,10.86-1,11.63-1,7.57.59,11.35.89,13.77,1.43a74.09,74.09,0,0,1,9.23,2.86,57.39,57.39,0,0,0,26.5,2.2c6.32-1.06,12.92-2.17,18.06-6.62,2.19-1.9,4.52-3.24,9.16-5.91a8.53,8.53,0,0,1,5.07-1.43,9.16,9.16,0,0,1,3.7,1.23A13.78,13.78,0,0,1,193,44c1,1,1.09,1.49,1.89,1.88s1.4.29,2.86.26c1.23,0,2.46.1,3.7.09,5-.06,25.45,4.19,30.58,7.19.39.22,3.1,1.85,4.68,1.64a2.82,2.82,0,0,1,1.29.09,3,3,0,0,1,1.22.78c2.25,2.29,2.71,1.29,10,9.7a48.46,48.46,0,0,1,3.46,4.24,28.6,28.6,0,0,1,3.56,6.85,18.69,18.69,0,0,0,.95,2.42,3.87,3.87,0,0,0,1,1.56,2.31,2.31,0,0,0,2.08.61,2,2,0,0,0,1-1,3,3,0,0,0,.17-1.65,4.91,4.91,0,0,0-.17-1.21c-.31-1-1-1.09-1.91-2.17a15,15,0,0,1-1.64-2.86c-.44-.86-.48-1-.87-1.73-.6-1.06-.82-1.2-1.21-1.91a15.89,15.89,0,0,1-1-2.77,6.42,6.42,0,0,0-2.78-2.68c-.28-.19-5.61-3.77-7.88-8.58A13.49,13.49,0,0,0,241.14,51a2.22,2.22,0,0,0-1.47-.7c-.47,0-.63.21-1.21.44a4.66,4.66,0,0,1-2.69.17c-.7-.19-.79-.47-1.73-1a11.36,11.36,0,0,0-2.69-1.13c-.32-.1-11.44-3.72-15.33-5.19a3.11,3.11,0,0,1-1.9-1.56,1.88,1.88,0,0,1,.26-1.91c.41-.41,1.1-.47,2.51-.17a26.08,26.08,0,0,1,5.72,2.25,28.25,28.25,0,0,0,4,1.39c2.64.68,2.58.12,8.66.6,2.45.2,4.21.43,5.2-.43a1.59,1.59,0,0,1,1.21-.52c.51.09.79.64.87.78.69,1.23,2.84,2.2,13.77,13.77,3.13,3.32,4.7,5,4.77,5.11A4.23,4.23,0,0,0,263,65c.08,0,1.29.59,1.82.09.13-.13.21-.31.26-1.39a7.15,7.15,0,0,0,0-1.73c-.22-.68-.7-.74-2.25-1.9-1.75-1.32-1.87-1.81-1.91-2-.09-.53.14-.78,0-1.56a4.08,4.08,0,0,0-.52-1.3c-.92-1.51-4.87-3.51-5.37-3.76a18,18,0,0,1-6.88-6.76,25.77,25.77,0,0,0-3.38-5.2,4.22,4.22,0,0,0-1.82-1.3,4.85,4.85,0,0,0-3.12.26c-2.87,1-3.29-.25-11.17-.13a9.17,9.17,0,0,1-3.12-.39,9.06,9.06,0,0,1-2.6-1.3c-2-1.27-2.35-.89-6.63-2.72-3.21-1.38-4.85-2.1-6.11-3.38a15.4,15.4,0,0,1-2.46-3.77c-2.24-4.1-1.6-4.92-3.12-6.24a25.16,25.16,0,0,0-4.68-2.6c-1.08-.53-2.07-1-2.21-1.82a2,2,0,0,1,.78-1.69c1.12-.87,2.36.13,5.2.26a10,10,0,0,0,5.46-1c.71-.41.34-.36,2.72-2.21A25.2,25.2,0,0,1,215.39,9c1.82-1,2.75-1,2.73-1.3,0-.61-3.66-1.81-6.76-.52-2.71,1.13-2.46,3.11-5.19,4.16-1,.37-2.74.25-6.24,0s-5.43-.4-6.76-1c-2-1-2.43-2.09-4.15-3.64-2.52-2.27-5.09-3-9.36-4.16A44.42,44.42,0,0,0,159.76.91c-7.28.89-8.84,1.84-11.95,4.16-2.7,2-4.13,3.92-6.24,4.16-2.77.31-3.28-.14-10.4,0-6.82.13-6.45.46-11.43,0C116.27,8.91,108.1,8,103.63,7.67c-5.84-.42-5.15-.59-6.24-.52-3.83.25-6.59,2.07-12,5.72-4.12,2.8-6.18,4.2-7.8,6.23-2.66,3.36-2.77,5.62-6.24,9.36A28.78,28.78,0,0,1,67.2,32.1c-2,1.46-5.75,3.89-18.2,7.27-1,.28-6.77,1.83-14.55,3.12-1.82.3-3.48.55-4.93.71,3-1.21,4-2.51,4.67-3.7.34-.64.52-1.26,1.3-2.66,1-1.69,1.42-2.54,1.62-2.79.45-.56.94-1,.78-1.5a.68.68,0,0,0-.58-.45c-.35,0-.53.33-1,.71a5.9,5.9,0,0,1-1.3.72c-2.22,1-2.7.84-3.18,1.49s-.12.78-.65,1.63A5.43,5.43,0,0,1,30,38,29.74,29.74,0,0,0,27.28,40a3.55,3.55,0,0,0-1,1.5A3.66,3.66,0,0,0,26.31,43.49Z" transform="translate(0.05 0.05)"/></svg>