<svg id="Layer_1" data-name="Layer 1" xmlns="http://www.w3.org/2000/svg" viewBox="0 0 265.51 100.75"><defs><style>.cls-1{fill:none;stroke:#000;stroke-linecap:round;stroke-linejoin:round;}</style></defs><path class="cls-1" d="M37.55,137.58c-2.13,0-3.43-.24-3.72-1-.19-.48.28-1.05.86-2.4a10.79,10.79,0,0,1,1.65-3.06,25.79,25.79,0,0,1,3.25-3.4,21.32,21.32,0,0,1,2.34-2c.67-.43,1.77-.76,1.51-1.67a1.59,1.59,0,0,0-.78-1c-.9-.43-2.07.35-2.94,1a17.66,17.66,0,0,0-4.16,4.24c-.65.9-1.41,2.05-1.73,1.91s0-.83-.44-1.39a1.34,1.34,0,0,0-1.29-.43,1.61,1.61,0,0,0-1,1c-.38.83,0,1.28,0,2.69a11.15,11.15,0,0,1-.6,3.64c-.23.82-.34,1-.52,1.12-.87.6-2.93-.26-3.38-1.56-.25-.71.2-.94.08-2.25-.06-.73-.16-1.88-.95-2.25a1.66,1.66,0,0,0-1.82.43c-.52.63-.16,1.46-.43,1.56s-1-1.09-2.43-3a9.87,9.87,0,0,0-2.59-2.77c-1.14-.75-1.68-.67-1.91-.61a2,2,0,0,0-1.3,1.48c-.21.87,1.33,1.5,1.73,1.92,1.61,1.65,2.27,3.13,3.55,4.68,1.69,2,2.77,3.73,3.73,4.14a8.75,8.75,0,0,1,2.86,1.38c.39.33,1.66,1.41,1.56,2.69-.07.85-.71,1.37-1.48,2.08a21.56,21.56,0,0,0-3.63,4.07c-1.51,2.54-.07,3.9-1.82,6.93-.14.24-.67.94-1.74,2.34-2.07,2.73-2.59,3.17-2.85,4.33-.31,1.32.17,1.6-.33,2.66a4.58,4.58,0,0,1-2.21,2.21c-.79.35-1.36.28-2.14.91a1.92,1.92,0,0,0-.72.84c-.31.93.55,1.94,1.17,2.67a4,4,0,0,0,2,1.49,2.87,2.87,0,0,0,1.43.07,3.42,3.42,0,0,0,1.9-1.41c1.57-2.12,9-6.78,19.23-15.33a6.56,6.56,0,0,0,2.26-3c.13-.44.1-.56.34-1.39a8.47,8.47,0,0,1,1.13-2.77,6.13,6.13,0,0,1,1.82-1.65,7.6,7.6,0,0,1,2.25-1c3.45-.87,6.2-2.66,15.94-4.94,9.92-2.32,10.06-1.16,15.85-2.51a9.14,9.14,0,0,1,4.68,0,9.43,9.43,0,0,1,3.38,1.91c1.06.83,1.82,1.45,1.81,2.33a2.26,2.26,0,0,1-.69,1.48,2.74,2.74,0,0,1-1.38.69c-1.46.29-7.45,4.2-13.17,9.1a83,83,0,0,0-15.68,17.15c-2.87,4.36-4.31,6.54-4.59,7.1-.89,1.78-3.27,6.86-5.2,8a3.72,3.72,0,0,0-1.21,1,3.14,3.14,0,0,0-.69,1.73c0,.77.2,2,1,2.34a2.51,2.51,0,0,0,1.9-.43,3.36,3.36,0,0,0,.78-.52,4,4,0,0,0,1-1.48c.33-.67.82-1.26,1.22-1.9,6.51-10.32,10-15.16,10-15.16,1.32-1.86,5.33-5.94,13.34-14.12a5.76,5.76,0,0,1,3.46-1.73,1.39,1.39,0,0,1,1.13.34,1.57,1.57,0,0,1,.09,1.39,2.28,2.28,0,0,1-.87,1,31.4,31.4,0,0,0-4.33,4.07c-4.41,4.44-5.53,6.52-14.73,19.06-2.15,2.94-3.27,6.65-5.8,9.27a2,2,0,0,0-.61,1.21,1.32,1.32,0,0,0,.26.95c.31.35.87.32,2,.26.74,0,1-.13,1.13-.26a1.48,1.48,0,0,0,.52-.86c.33-1.3,7.94-14.57,17.24-24.69,5.54-6,9-8.06,11-11a13.17,13.17,0,0,1,4-3.9,8.12,8.12,0,0,1,1.5-.78c2.17-.81,3.12.09,5.65-.39a6.53,6.53,0,0,0,3.25-1.36,7,7,0,0,0,1.88-2.86c.7-1.79.28-2.43,1-3.51a4.88,4.88,0,0,1,2.67-1.82c4.32-1.51,10.86-1,11.63-1,7.57.59,11.35.89,13.77,1.43a73.68,73.68,0,0,1,9.23,2.86,57.4,57.4,0,0,0,26.5,2.2c6.32-1.06,12.92-2.17,18.06-6.62,2.19-1.9,4.52-3.24,9.16-5.91a8.57,8.57,0,0,1,5.07-1.43,9.15,9.15,0,0,1,3.7,1.23,13.41,13.41,0,0,1,3.12,2.41c1,1,1.09,1.49,1.89,1.88s1.4.29,2.86.26c1.23,0,2.46.1,3.7.09,5-.06,25.45,4.19,30.58,7.19.39.22,3.1,1.85,4.68,1.64a2.79,2.79,0,0,1,1.29.09,3,3,0,0,1,1.22.78c2.25,2.29,2.71,1.29,10,9.7a49.85,49.85,0,0,1,3.46,4.24,28.58,28.58,0,0,1,3.56,6.85,18.2,18.2,0,0,0,.95,2.42,3.83,3.83,0,0,0,.95,1.56,2.31,2.31,0,0,0,2.08.61,2,2,0,0,0,1-.95,3,3,0,0,0,.17-1.65,4.89,4.89,0,0,0-.17-1.21c-.31-1-1-1.09-1.91-2.17a14.73,14.73,0,0,1-1.64-2.86c-.44-.86-.48-1-.87-1.73-.6-1.06-.82-1.2-1.21-1.91a16,16,0,0,1-.95-2.77,6.41,6.41,0,0,0-2.78-2.68c-.28-.19-5.61-3.77-7.88-8.58a13.38,13.38,0,0,0-2.86-3.72,2.2,2.2,0,0,0-1.47-.7c-.47,0-.63.21-1.21.44a4.59,4.59,0,0,1-2.69.17c-.7-.19-.79-.47-1.73-1a11.33,11.33,0,0,0-2.69-1.13c-.32-.1-11.44-3.72-15.33-5.19a3.1,3.1,0,0,1-1.9-1.56,1.87,1.87,0,0,1,.26-1.91c.41-.41,1.1-.47,2.51-.17a26,26,0,0,1,5.72,2.25,27.75,27.75,0,0,0,4,1.39c2.64.68,2.58.12,8.66.6,2.45.2,4.21.43,5.2-.43a1.6,1.6,0,0,1,1.21-.52c.51.09.79.64.87.78.69,1.23,2.84,2.2,13.77,13.77,3.13,3.32,4.7,5,4.77,5.11a4.21,4.21,0,0,0,1.9,2.08c.08,0,1.29.59,1.82.09.13-.13.21-.31.26-1.39a7.34,7.34,0,0,0,0-1.73c-.22-.68-.7-.74-2.25-1.9-1.75-1.32-1.87-1.81-1.91-2-.09-.53.14-.78,0-1.56a4,4,0,0,0-.52-1.3c-.92-1.51-4.87-3.51-5.37-3.76a18,18,0,0,1-6.88-6.76,25.69,25.69,0,0,0-3.38-5.2,4.2,4.2,0,0,0-1.82-1.3,4.83,4.83,0,0,0-3.12.26c-2.87,1-3.29-.25-11.17-.13a9.26,9.26,0,0,1-3.12-.39,9.1,9.1,0,0,1-2.6-1.3c-1.95-1.27-2.35-.89-6.63-2.72-3.21-1.38-4.85-2.1-6.11-3.38a15.41,15.41,0,0,1-2.46-3.77c-2.24-4.1-1.6-4.92-3.12-6.24a25.39,25.39,0,0,0-4.68-2.6c-1.08-.53-2.07-1-2.21-1.82a1.94,1.94,0,0,1,.78-1.69c1.12-.87,2.36.13,5.2.26a10,10,0,0,0,5.46-1c.71-.41.34-.36,2.72-2.21a24.85,24.85,0,0,1,3.51-2.47c1.82-1,2.75-1,2.73-1.3,0-.61-3.66-1.81-6.76-.52-2.71,1.13-2.46,3.11-5.19,4.16-1,.37-2.74.25-6.24,0s-5.43-.4-6.76-1c-2-1-2.43-2.09-4.15-3.64-2.52-2.27-5.09-3-9.36-4.16A44.39,44.39,0,0,0,171,95c-7.28.89-8.84,1.84-11.95,4.16-2.7,2-4.13,3.92-6.24,4.16-2.77.31-3.28-.14-10.4,0-6.82.13-6.45.46-11.43,0-3.47-.32-11.64-1.24-16.11-1.56-5.84-.42-5.15-.59-6.24-.52-3.83.25-6.59,2.07-12,5.72-4.12,2.8-6.18,4.2-7.8,6.23-2.66,3.36-2.77,5.62-6.24,9.36a29,29,0,0,1-4.15,3.64c-2,1.46-5.75,3.89-18.2,7.27-1,.28-6.77,1.83-14.55,3.12-1.82.3-3.48.55-4.93.71,3-1.21,4-2.51,4.67-3.7.34-.64.52-1.26,1.3-2.66,1-1.69,1.42-2.54,1.62-2.79.45-.56.94-1,.78-1.5a.68.68,0,0,0-.58-.45c-.35,0-.53.33-1,.71a5.84,5.84,0,0,1-1.3.72c-2.22,1-2.7.84-3.18,1.49s-.12.78-.65,1.63a5.54,5.54,0,0,1-1.23,1.3,32.63,32.63,0,0,0-2.67,2.07,3.58,3.58,0,0,0-1,1.5A3.71,3.71,0,0,0,37.55,137.58Z" transform="translate(-11.24 -94.09)"/></svg>